<?xml version="1.0" encoding="UTF-8"?>
<svg version="1.1" width="612px" height="792px" viewBox="0 0 612 792" xmlns="http://www.w3.org/2000/svg" xmlns:xlink="http://www.w3.org/1999/xlink" xmlns:cs="svg" xml:space="preserve"><style type="text/css">.ps02{fill:#333a3f}.ps05{fill:#333a3f}.ps04{fill:#e9a506}.ps03{fill:#e9a506}.ps01{fill:#fff}.ps00{fill:none}.ps23{letter-spacing:0;word-spacing:0;font-family:Verdana;font-size:10px;font-weight:600}.ps22{letter-spacing:1px;word-spacing:0;font-family:Verdana;font-size:13px;font-weight:600}.ps20{letter-spacing:1px;word-spacing:0;font-family:Verdana;font-size:27px;font-weight:600}.ps21{letter-spacing:0;word-spacing:0;font-family:Verdana;font-size:10px}.ps24{letter-spacing:0;word-spacing:0;font-family:Verdana;font-size:10px;font-style:italic}</style><clipPath id="clp1"><rect width="612" height="792"/></clipPath><g clip-path="url(#clp1)" transform="matrix(1 0 0 -1 0 792)"><g><g transform="matrix(1.342 0 0 1.342 0 32)"><clipPath id="clp2"><rect width="459" height="542.5"/></clipPath><g clip-path="url(#clp2)"><g><g transform="matrix(0.745 0 0 -0.745 0 542.454)"><g><clipPath id="clp3"><path d="M0 0 L612 0 L612 673 L0 673 Z"/></clipPath><g clip-path="url(#clp3)"><g class="ps00"><path d="M0 0 L612 0 L612 673 L0 673 Z" class="ps01"/></g></g></g><g><clipPath id="clp4"><path d="M0 0 L616.11 0 L616.11 727.53 L0 727.53 Z"/></clipPath><g clip-path="url(#clp4)"><g class="ps00"><clipPath id="clp5"><path d="M64 -2.999 L198 -2.999 L198 34.999 L64 34.999 Z"/></clipPath><g clip-path="url(#clp5)"><g class="ps00"><text transform="matrix(1 0 0 1 69 25.5)"><tspan class="ps02 ps20" xml:space="preserve">ISMAEL</tspan></text></g></g></g><g class="ps00"><clipPath id="clp6"><path d="M64 20.999 L203 20.999 L203 62.998 L64 62.998 Z"/></clipPath><g clip-path="url(#clp6)"><g class="ps00"><text transform="matrix(1 0 0 1 69 53.5)"><tspan class="ps02 ps20" xml:space="preserve">NORRIS</tspan></text></g></g></g><g class="ps00"><clipPath id="clp7"><path d="M64 51.001 L195 51.001 L195 72.001 L64 72.001 Z"/></clipPath><g clip-path="url(#clp7)"><g class="ps00"><text transform="matrix(1 0 0 1 69 66)"><tspan class="ps02 ps21" xml:space="preserve">example@example.com</tspan></text></g></g></g><g class="ps00"><clipPath id="clp8"><path d="M183 51.001 L205 51.001 L205 72.001 L183 72.001 Z"/></clipPath><g clip-path="url(#clp8)"><g class="ps00"><text transform="matrix(1 0 0 1 188.725 66)"><tspan xml:space="preserve" x="0,3.51,8.05" class="ps02 ps21"> |</tspan></text></g></g></g><g class="ps00"><clipPath id="clp9"><path d="M195 51.001 L288 51.001 L288 72.001 L195 72.001 Z"/></clipPath><g clip-path="url(#clp9)"><g class="ps00"><text transform="matrix(1 0 0 1 200.287 66)"><tspan class="ps02 ps21" xml:space="preserve">(555) 555-5555</tspan></text></g></g></g><g class="ps00"><clipPath id="clp10"><path d="M64 62.002 L184 62.002 L184 83.001 L64 83.001 Z"/></clipPath><g clip-path="url(#clp10)"><g class="ps00"><text transform="matrix(1 0 0 1 69 77)"><tspan class="ps02 ps21" xml:space="preserve">Annandale, VA 22003</tspan></text></g></g></g><g class="ps00"><clipPath id="clp11"><path d="M48.999 77.999 L50 77.999 L50 163 L48.999 163 Z"/></clipPath><g clip-path="url(#clp11)"><g class="ps00"><path d="M48.999 77.999 L50 77.999 L50 163 L48.999 163 Z" class="ps03"/></g></g></g><g class="ps00"><clipPath id="clp12"><path d="M65.001 94.002 L259 94.002 L259 118 L65.001 118 Z"/></clipPath><g clip-path="url(#clp12)"><g class="ps00"><text transform="matrix(1 0 0 1 70 112)"><tspan class="ps04 ps22" xml:space="preserve">SUMMARY STATEMENT</tspan></text></g></g></g><g class="ps00"><clipPath id="clp13"><path d="M65.001 114 L586 114 L586 135 L65.001 135 Z"/></clipPath><g clip-path="url(#clp13)"><g class="ps00"><text transform="matrix(1 0 0 1 70 129)"><tspan class="ps02 ps21" xml:space="preserve">Detail-oriented Blogger with two years of blogging writing experience. Successful at working towards</tspan></text></g></g></g><g class="ps00"><clipPath id="clp14"><path d="M65.001 125 L579 125 L579 146 L65.001 146 Z"/></clipPath><g clip-path="url(#clp14)"><g class="ps00"><text transform="matrix(1 0 0 1 70 140)"><tspan x="0,6.23" class="ps02 ps21" xml:space="preserve">deadlines and listening to feedback for best-in-class publishing. Adept at maintaining multiple blogs</tspan></text></g></g></g><g class="ps00"><clipPath id="clp15"><path d="M65.001 136 L571 136 L571 157 L65.001 157 Z"/></clipPath><g clip-path="url(#clp15)"><g class="ps00"><text transform="matrix(1 0 0 1 70 151)"><tspan class="ps02 ps21" xml:space="preserve">at once and researching lifestyle. Successful at posting frequently and using content management</tspan></text></g></g></g><g class="ps00"><clipPath id="clp16"><path d="M65.001 147 L121 147 L121 168 L65.001 168 Z"/></clipPath><g clip-path="url(#clp16)"><g class="ps00"><text transform="matrix(1 0 0 1 70 162)"><tspan class="ps02 ps21" xml:space="preserve">systems.</tspan></text></g></g></g><g class="ps00"><clipPath id="clp17"><path d="M48.999 163 L50 163 L50 253 L48.999 253 Z"/></clipPath><g clip-path="url(#clp17)"><g class="ps00"><path d="M48.999 163 L50 163 L50 253 L48.999 253 Z" class="ps03"/></g></g></g><g class="ps00"><clipPath id="clp18"><path d="M65.001 179 L135 179 L135 203 L65.001 203 Z"/></clipPath><g clip-path="url(#clp18)"><g class="ps00"><text transform="matrix(1 0 0 1 70 197)"><tspan class="ps04 ps22" xml:space="preserve">SKILLS</tspan></text></g></g></g><g class="ps00"><clipPath id="clp19"><path d="M98.002 204 L238 204 L238 225 L98.002 225 Z"/></clipPath><g clip-path="url(#clp19)"><g class="ps00"><text transform="matrix(1 0 0 1 103 219)"><tspan class="ps02 ps21" xml:space="preserve">Expository writing editing</tspan></text></g></g></g><g class="ps00"><path d="M85.801 213.22 L85.801 213.22 C87.012 213.22 87.998 214.21 87.998 215.43 C87.998 216.64 87.012 217.62 85.801 217.62 C84.585 217.62 83.599 216.64 83.599 215.43 C83.599 214.21 84.585 213.22 85.801 213.22 Z" class="ps05"/></g><g class="ps00"><clipPath id="clp20"><path d="M98.002 215 L242 215 L242 236 L98.002 236 Z"/></clipPath><g clip-path="url(#clp20)"><g class="ps00"><text transform="matrix(1 0 0 1 103 230)"><tspan class="ps02 ps21" xml:space="preserve">Creativity and consistency</tspan></text></g></g></g><g class="ps00"><path d="M85.801 224.22 L85.801 224.22 C87.012 224.22 87.998 225.21 87.998 226.43 C87.998 227.64 87.012 228.62 85.801 228.62 C84.585 228.62 83.599 227.64 83.599 226.43 C83.599 225.21 84.585 224.22 85.801 224.22 Z" class="ps05"/></g><g class="ps00"><clipPath id="clp21"><path d="M98.002 226 L219 226 L219 247 L98.002 247 Z"/></clipPath><g clip-path="url(#clp21)"><g class="ps00"><text transform="matrix(1 0 0 1 103 241)"><tspan class="ps02 ps21" xml:space="preserve">WordPress knowledge</tspan></text></g></g></g><g class="ps00"><path d="M85.801 235.22 L85.801 235.22 C87.012 235.22 87.998 236.21 87.998 237.43 C87.998 238.64 87.012 239.62 85.801 239.62 C84.585 239.62 83.599 238.64 83.599 237.43 C83.599 236.21 84.585 235.22 85.801 235.22 Z" class="ps05"/></g><g class="ps00"><clipPath id="clp22"><path d="M98.002 237 L184 237 L184 258 L98.002 258 Z"/></clipPath><g clip-path="url(#clp22)"><g class="ps00"><text transform="matrix(1 0 0 1 103 252)"><tspan x="0,6.83" class="ps02 ps21" xml:space="preserve">SEO familiarity</tspan></text></g></g></g><g class="ps00"><path d="M85.801 246.22 L85.801 246.22 C87.012 246.22 87.998 247.21 87.998 248.43 C87.998 249.64 87.012 250.62 85.801 250.62 C84.585 250.62 83.599 249.64 83.599 248.43 C83.599 247.21 84.585 246.22 85.801 246.22 Z" class="ps05"/></g><g class="ps00"><clipPath id="clp23"><path d="M353 204 L451 204 L451 225 L353 225 Z"/></clipPath><g clip-path="url(#clp23)"><g class="ps00"><text transform="matrix(1 0 0 1 358 219)"><tspan class="ps02 ps21" xml:space="preserve">Digital publishing</tspan></text></g></g></g><g class="ps00"><path d="M340.8 213.22 L340.8 213.22 C342.01 213.22 343 214.21 343 215.43 C343 216.64 342.01 217.62 340.8 217.62 C339.59 217.62 338.6 216.64 338.6 215.43 C338.6 214.21 339.59 213.22 340.8 213.22 Z" class="ps05"/></g><g class="ps00"><clipPath id="clp24"><path d="M353 215 L476 215 L476 236 L353 236 Z"/></clipPath><g clip-path="url(#clp24)"><g class="ps00"><text transform="matrix(1 0 0 1 358 230)"><tspan class="ps02 ps21" xml:space="preserve">Audience engagement</tspan></text></g></g></g><g class="ps00"><path d="M340.8 224.22 L340.8 224.22 C342.01 224.22 343 225.21 343 226.43 C343 227.64 342.01 228.62 340.8 228.62 C339.59 228.62 338.6 227.64 338.6 226.43 C338.6 225.21 339.59 224.22 340.8 224.22 Z" class="ps05"/></g><g class="ps00"><clipPath id="clp25"><path d="M353 226 L422 226 L422 247 L353 247 Z"/></clipPath><g clip-path="url(#clp25)"><g class="ps00"><text transform="matrix(1 0 0 1 358 241)"><tspan class="ps02 ps21" xml:space="preserve">Negotiation</tspan></text></g></g></g><g class="ps00"><path d="M340.8 235.22 L340.8 235.22 C342.01 235.22 343 236.21 343 237.43 C343 238.64 342.01 239.62 340.8 239.62 C339.59 239.62 338.6 238.64 338.6 237.43 C338.6 236.21 339.59 235.22 340.8 235.22 Z" class="ps05"/></g><g class="ps00"><clipPath id="clp26"><path d="M353 237 L461 237 L461 258 L353 258 Z"/></clipPath><g clip-path="url(#clp26)"><g class="ps00"><text transform="matrix(1 0 0 1 358 252)"><tspan class="ps02 ps21" xml:space="preserve">Content scheduling</tspan></text></g></g></g><g class="ps00"><path d="M340.8 246.22 L340.8 246.22 C342.01 246.22 343 247.21 343 248.43 C343 249.64 342.01 250.62 340.8 250.62 C339.59 250.62 338.6 249.64 338.6 248.43 C338.6 247.21 339.59 246.22 340.8 246.22 Z" class="ps05"/></g><g class="ps00"><clipPath id="clp27"><path d="M48.999 253 L50 253 L50 485 L48.999 485 Z"/></clipPath><g clip-path="url(#clp27)"><g class="ps00"><path d="M48.999 253 L50 253 L50 485 L48.999 485 Z" class="ps03"/></g></g></g><g class="ps00"><clipPath id="clp28"><path d="M65.001 269 L266 269 L266 293 L65.001 293 Z"/></clipPath><g clip-path="url(#clp28)"><g class="ps00"><text transform="matrix(1 0 0 1 70 287)"><tspan class="ps04 ps22" xml:space="preserve">PROFESSIONAL SKILLS</tspan></text></g></g></g><g class="ps00"><clipPath id="clp29"><path d="M65.001 289 L189 289 L189 310 L65.001 310 Z"/></clipPath><g clip-path="url(#clp29)"><g class="ps00"><text transform="matrix(1 0 0 1 70 304)"><tspan x="0,8.3" class="ps02 ps23" xml:space="preserve">Digital Photography</tspan></text></g></g></g><g class="ps00"><clipPath id="clp30"><path d="M98.002 305 L429 305 L429 326 L98.002 326 Z"/></clipPath><g clip-path="url(#clp30)"><g class="ps00"><text transform="matrix(1 0 0 1 103 320)"><tspan x="0,6.98,9.72,15.78,20.98,26.93,29.67,35.58,39.09" class="ps02 ps21" xml:space="preserve">Closely worked with visual editing software and DSLR cameras.</tspan></text></g></g></g><g class="ps00"><path d="M85.801 314.23 L85.801 314.23 C87.012 314.23 87.998 315.21 87.998 316.43 C87.998 317.64 87.012 318.62 85.801 318.62 C84.585 318.62 83.599 317.64 83.599 316.43 C83.599 315.21 84.585 314.23 85.801 314.23 Z" class="ps05"/></g><g class="ps00"><clipPath id="clp31"><path d="M98.002 316 L458 316 L458 337 L98.002 337 Z"/></clipPath><g clip-path="url(#clp31)"><g class="ps00"><text transform="matrix(1 0 0 1 103 331)"><tspan class="ps02 ps21" xml:space="preserve">Good attention to detail when capturing the topic of my blog visually.</tspan></text></g></g></g><g class="ps00"><path d="M85.801 325.23 L85.801 325.23 C87.012 325.23 87.998 326.21 87.998 327.42 C87.998 328.64 87.012 329.62 85.801 329.62 C84.585 329.62 83.599 328.64 83.599 327.42 C83.599 326.21 84.585 325.23 85.801 325.23 Z" class="ps05"/></g><g class="ps00"><clipPath id="clp32"><path d="M98.002 327 L545 327 L545 348 L98.002 348 Z"/></clipPath><g clip-path="url(#clp32)"><g class="ps00"><text transform="matrix(1 0 0 1 103 342)"><tspan class="ps02 ps21" xml:space="preserve">Maintained aesthetics of blog through three to five images and troubleshooting issues.</tspan></text></g></g></g><g class="ps00"><path d="M85.801 336.23 L85.801 336.23 C87.012 336.23 87.998 337.21 87.998 338.42 C87.998 339.64 87.012 340.63 85.801 340.63 C84.585 340.63 83.599 339.64 83.599 338.42 C83.599 337.21 84.585 336.23 85.801 336.23 Z" class="ps05"/></g><g class="ps00"><clipPath id="clp33"><path d="M65.001 338 L214 338 L214 359 L65.001 359 Z"/></clipPath><g clip-path="url(#clp33)"><g class="ps00"><text transform="matrix(1 0 0 1 70 353)"><tspan x="0,6.37" class="ps02 ps23" xml:space="preserve">Lifestyle Blogs Expertise</tspan></text></g></g></g><g class="ps00"><clipPath id="clp34"><path d="M98.002 354 L569 354 L569 375 L98.002 375 Z"/></clipPath><g clip-path="url(#clp34)"><g class="ps00"><text transform="matrix(1 0 0 1 103 369)"><tspan x="0,6.92,12.87" class="ps02 ps21" xml:space="preserve">Kept up with current understanding of travel industry and lifestyle genre trends, enhancing</tspan></text></g></g></g><g class="ps00"><clipPath id="clp35"><path d="M98.002 365 L266 365 L266 386 L98.002 386 Z"/></clipPath><g clip-path="url(#clp35)"><g class="ps00"><text transform="matrix(1 0 0 1 103 380)"><tspan x="0,8.18" class="ps02 ps21" xml:space="preserve">writing and marketing success.</tspan></text></g></g></g><g class="ps00"><path d="M85.801 363.22 L85.801 363.22 C87.012 363.22 87.998 364.21 87.998 365.43 C87.998 366.64 87.012 367.62 85.801 367.62 C84.585 367.62 83.599 366.64 83.599 365.43 C83.599 364.21 84.585 363.22 85.801 363.22 Z" class="ps05"/></g><g class="ps00"><clipPath id="clp36"><path d="M98.002 376 L417 376 L417 397 L98.002 397 Z"/></clipPath><g clip-path="url(#clp36)"><g class="ps00"><text transform="matrix(1 0 0 1 103 391)"><tspan x="0,6.03,12.35,18.58,21.32,24.06,29.26,35.58,41.53,47.76,51.27,57.62,63.97,72.15,75.66,79.92,85.87,92.1,98.42,101.16,107.16,111.42,114.93,121.16,123.9,129.85,135.05,141" class="ps02 ps21" xml:space="preserve">Published 10+ regular pieces on travel and countries to blog.</tspan></text></g></g></g><g class="ps00"><path d="M85.801 385.22 L85.801 385.22 C87.012 385.22 87.998 386.21 87.998 387.43 C87.998 388.64 87.012 389.62 85.801 389.62 C84.585 389.62 83.599 388.64 83.599 387.43 C83.599 386.21 84.585 385.22 85.801 385.22 Z" class="ps05"/></g><g class="ps00"><clipPath id="clp37"><path d="M98.002 387 L527 387 L527 408 L98.002 408 Z"/></clipPath><g clip-path="url(#clp37)"><g class="ps00"><text transform="matrix(1 0 0 1 103 402)"><tspan x="0,6.03" class="ps02 ps21" xml:space="preserve">Pitched blog post ideas to airlines and wrote for target audience demographics and</tspan></text></g></g></g><g class="ps00"><clipPath id="clp38"><path d="M98.002 398 L172 398 L172 419 L98.002 419 Z"/></clipPath><g clip-path="url(#clp38)"><g class="ps00"><text transform="matrix(1 0 0 1 103 413)"><tspan class="ps02 ps21" xml:space="preserve">preferences.</tspan></text></g></g></g><g class="ps00"><path d="M85.801 396.22 L85.801 396.22 C87.012 396.22 87.998 397.21 87.998 398.43 C87.998 399.64 87.012 400.62 85.801 400.62 C84.585 400.62 83.599 399.64 83.599 398.43 C83.599 397.21 84.585 396.22 85.801 396.22 Z" class="ps05"/></g><g class="ps00"><clipPath id="clp39"><path d="M65.001 409 L294 409 L294 430 L65.001 430 Z"/></clipPath><g clip-path="url(#clp39)"><g class="ps00"><text transform="matrix(1 0 0 1 70 424)"><tspan x="0,8.3" class="ps02 ps23" xml:space="preserve">Digital Marketing and Google Analytics</tspan></text></g></g></g><g class="ps00"><clipPath id="clp40"><path d="M98.002 425 L575 425 L575 446 L98.002 446 Z"/></clipPath><g clip-path="url(#clp40)"><g class="ps00"><text transform="matrix(1 0 0 1 103 440)"><tspan x="0,4.2" class="ps02 ps21" xml:space="preserve">Increased website and social media traffic by 90% by creating dynamic graphics and pieces.</tspan></text></g></g></g><g class="ps00"><path d="M85.801 434.22 L85.801 434.22 C87.012 434.22 87.998 435.21 87.998 436.43 C87.998 437.64 87.012 438.63 85.801 438.63 C84.585 438.63 83.599 437.64 83.599 436.43 C83.599 435.21 84.585 434.22 85.801 434.22 Z" class="ps05"/></g><g class="ps00"><clipPath id="clp41"><path d="M98.002 436 L586 436 L586 457 L98.002 457 Z"/></clipPath><g clip-path="url(#clp41)"><g class="ps00"><text transform="matrix(1 0 0 1 103 451)"><tspan x="0,7.87,13.78,19.73,23.99,29.19,35.19,43.37,46.88,54.63,60.69,66.75" class="ps02 ps21" xml:space="preserve">Oversaw Google Analytics and added meta descriptions, keywords, and image tags to improve</tspan></text></g></g></g><g class="ps00"><clipPath id="clp42"><path d="M98.002 447 L221 447 L221 468 L98.002 468 Z"/></clipPath><g clip-path="url(#clp42)"><g class="ps00"><text transform="matrix(1 0 0 1 103 462)"><tspan class="ps02 ps21" xml:space="preserve">clients' SEO presence.</tspan></text></g></g></g><g class="ps00"><path d="M85.801 445.22 L85.801 445.22 C87.012 445.22 87.998 446.21 87.998 447.43 C87.998 448.64 87.012 449.62 85.801 449.62 C84.585 449.62 83.599 448.64 83.599 447.43 C83.599 446.21 84.585 445.22 85.801 445.22 Z" class="ps05"/></g><g class="ps00"><clipPath id="clp43"><path d="M98.002 458 L569 458 L569 479 L98.002 479 Z"/></clipPath><g clip-path="url(#clp43)"><g class="ps00"><text transform="matrix(1 0 0 1 103 473)"><tspan class="ps02 ps21" xml:space="preserve">Employed site management tools to publish content and maintain professional-looking web</tspan></text></g></g></g><g class="ps00"><clipPath id="clp44"><path d="M98.002 469 L143 469 L143 490 L98.002 490 Z"/></clipPath><g clip-path="url(#clp44)"><g class="ps00"><text transform="matrix(1 0 0 1 103 484)"><tspan x="0,6.23" class="ps02 ps21" xml:space="preserve">pages.</tspan></text></g></g></g><g class="ps00"><path d="M85.801 467.22 L85.801 467.22 C87.012 467.22 87.998 468.21 87.998 469.43 C87.998 470.64 87.012 471.62 85.801 471.62 C84.585 471.62 83.599 470.64 83.599 469.43 C83.599 468.21 84.585 467.22 85.801 467.22 Z" class="ps05"/></g><g class="ps00"><clipPath id="clp45"><path d="M48.999 485 L50 485 L50 558 L48.999 558 Z"/></clipPath><g clip-path="url(#clp45)"><g class="ps00"><path d="M48.999 485 L50 485 L50 558 L48.999 558 Z" class="ps03"/></g></g></g><g class="ps00"><clipPath id="clp46"><path d="M65.001 501 L206 501 L206 525 L65.001 525 Z"/></clipPath><g clip-path="url(#clp46)"><g class="ps00"><text transform="matrix(1 0 0 1 70 519)"><tspan class="ps04 ps22" xml:space="preserve">WORK HISTORY</tspan></text></g></g></g><g class="ps00"><clipPath id="clp47"><path d="M478 521 L532 521 L532 542 L478 542 Z"/></clipPath><g clip-path="url(#clp47)"><g class="ps00"><text transform="matrix(1 0 0 1 483.012 536)"><tspan class="ps02 ps24" xml:space="preserve">01/2021</tspan></text></g></g></g><g class="ps00"><clipPath id="clp48"><path d="M520 521 L542 521 L542 542 L520 542 Z"/></clipPath><g clip-path="url(#clp48)"><g class="ps00"><text transform="matrix(1 0 0 1 525.724 536)"><tspan xml:space="preserve" x="0,3.51,8.05" class="ps02 ps24"> -</tspan></text></g></g></g><g class="ps00"><clipPath id="clp49"><path d="M532 521 L586 521 L586 542 L532 542 Z"/></clipPath><g clip-path="url(#clp49)"><g class="ps00"><text transform="matrix(1 0 0 1 537.287 536)"><tspan class="ps02 ps24" xml:space="preserve">03/2022</tspan></text></g></g></g><g class="ps00"><clipPath id="clp50"><path d="M65.001 521 L120 521 L120 542 L65.001 542 Z"/></clipPath><g clip-path="url(#clp50)"><g class="ps00"><text transform="matrix(1 0 0 1 70 536)"><tspan x="0,7.61,11.02,17.88,24.87,31.86,38.5" class="ps02 ps23">Blogger</tspan></text></g></g></g><g class="ps00"><clipPath id="clp51"><path d="M108 521 L130 521 L130 542 L108 542 Z"/></clipPath><g clip-path="url(#clp51)"><g class="ps00"><text transform="matrix(1 0 0 1 113.475 536)"><tspan xml:space="preserve" x="0,3.51,8.05" class="ps02 ps21"> |</tspan></text></g></g></g><g class="ps00"><clipPath id="clp52"><path d="M120 521 L237 521 L237 542 L120 542 Z"/></clipPath><g clip-path="url(#clp52)"><g class="ps00"><text transform="matrix(1 0 0 1 125.037 536)"><tspan class="ps02 ps21" xml:space="preserve">Self Employed Writer</tspan></text></g></g></g><g class="ps00"><clipPath id="clp53"><path d="M225 521 L247 521 L247 542 L225 542 Z"/></clipPath><g clip-path="url(#clp53)"><g class="ps00"><text transform="matrix(1 0 0 1 230.937 536)"><tspan xml:space="preserve" x="0,3.51,8.05" class="ps02 ps21"> -</tspan></text></g></g></g><g class="ps00"><clipPath id="clp54"><path d="M237 521 L302 521 L302 542 L237 542 Z"/></clipPath><g clip-path="url(#clp54)"><g class="ps00"><text transform="matrix(1 0 0 1 242.5 536)"><tspan class="ps02 ps21" xml:space="preserve">Annandale</tspan></text></g></g></g><g class="ps00"><clipPath id="clp55"><path d="M290 521 L307 521 L307 542 L290 542 Z"/></clipPath><g clip-path="url(#clp55)"><g class="ps00"><text transform="matrix(1 0 0 1 295.25 536)"><tspan class="ps02 ps21" xml:space="preserve">, </tspan></text></g></g></g><g class="ps00"><clipPath id="clp56"><path d="M297 521 L322 521 L322 542 L297 542 Z"/></clipPath><g clip-path="url(#clp56)"><g class="ps00"><text transform="matrix(1 0 0 1 302.399 536)"><tspan class="ps02 ps21" xml:space="preserve">VA</tspan></text></g></g></g><g class="ps00"><clipPath id="clp57"><path d="M478 542 L532 542 L532 563 L478 563 Z"/></clipPath><g clip-path="url(#clp57)"><g class="ps00"><text transform="matrix(1 0 0 1 483.012 557)"><tspan class="ps02 ps24" xml:space="preserve">07/2018</tspan></text></g></g></g><g class="ps00"><clipPath id="clp58"><path d="M520 542 L542 542 L542 563 L520 563 Z"/></clipPath><g clip-path="url(#clp58)"><g class="ps00"><text transform="matrix(1 0 0 1 525.724 557)"><tspan xml:space="preserve" x="0,3.51,8.05" class="ps02 ps24"> -</tspan></text></g></g></g><g class="ps00"><clipPath id="clp59"><path d="M532 542 L586 542 L586 563 L532 563 Z"/></clipPath><g clip-path="url(#clp59)"><g class="ps00"><text transform="matrix(1 0 0 1 537.287 557)"><tspan class="ps02 ps24" xml:space="preserve">01/2019</tspan></text></g></g></g><g class="ps00"><clipPath id="clp60"><path d="M65.001 542 L158 542 L158 563 L65.001 563 Z"/></clipPath><g clip-path="url(#clp60)"><g class="ps00"><text transform="matrix(1 0 0 1 70 557)"><tspan x="0,6.81" class="ps02 ps23" xml:space="preserve">Travel Blogger</tspan></text></g></g></g><g class="ps00"><clipPath id="clp61"><path d="M146 542 L168 542 L168 563 L146 563 Z"/></clipPath><g clip-path="url(#clp61)"><g class="ps00"><text transform="matrix(1 0 0 1 151.899 557)"><tspan xml:space="preserve" x="0,3.51,8.05" class="ps02 ps21"> |</tspan></text></g></g></g><g class="ps00"><clipPath id="clp62"><path d="M158 542 L273 542 L273 563 L158 563 Z"/></clipPath><g clip-path="url(#clp62)"><g class="ps00"><text transform="matrix(1 0 0 1 163.462 557)"><tspan class="ps02 ps21" xml:space="preserve">Traveling Spoon Inc.</tspan></text></g></g></g><g class="ps00"><clipPath id="clp63"><path d="M261 542 L283 542 L283 563 L261 563 Z"/></clipPath><g clip-path="url(#clp63)"><g class="ps00"><text transform="matrix(1 0 0 1 266.450 557)"><tspan xml:space="preserve" x="0,3.51,8.05" class="ps02 ps21"> -</tspan></text></g></g></g><g class="ps00"><clipPath id="clp64"><path d="M273 542 L337 542 L337 563 L273 563 Z"/></clipPath><g clip-path="url(#clp64)"><g class="ps00"><text transform="matrix(1 0 0 1 278.012 557)"><tspan class="ps02 ps21" xml:space="preserve">Annandale</tspan></text></g></g></g><g class="ps00"><clipPath id="clp65"><path d="M325 542 L342 542 L342 563 L325 563 Z"/></clipPath><g clip-path="url(#clp65)"><g class="ps00"><text transform="matrix(1 0 0 1 330.762 557)"><tspan class="ps02 ps21" xml:space="preserve">, </tspan></text></g></g></g><g class="ps00"><clipPath id="clp66"><path d="M332 542 L358 542 L358 563 L332 563 Z"/></clipPath><g clip-path="url(#clp66)"><g class="ps00"><text transform="matrix(1 0 0 1 337.912 557)"><tspan class="ps02 ps21" xml:space="preserve">VA</tspan></text></g></g></g><g class="ps00"><clipPath id="clp67"><path d="M48.999 558 L50 558 L50 621 L48.999 621 Z"/></clipPath><g clip-path="url(#clp67)"><g class="ps00"><path d="M48.999 558 L50 558 L50 621 L48.999 621 Z" class="ps03"/></g></g></g><g class="ps00"><clipPath id="clp68"><path d="M65.001 574 L173 574 L173 598 L65.001 598 Z"/></clipPath><g clip-path="url(#clp68)"><g class="ps00"><text transform="matrix(1 0 0 1 70 592)"><tspan class="ps04 ps22" xml:space="preserve">EDUCATION</tspan></text></g></g></g><g class="ps00"><clipPath id="clp69"><path d="M532 594 L586 594 L586 615 L532 615 Z"/></clipPath><g clip-path="url(#clp69)"><g class="ps00"><text transform="matrix(1 0 0 1 537.287 609)"><tspan class="ps02 ps24" xml:space="preserve">06/2021</tspan></text></g></g></g><g class="ps00"><clipPath id="clp70"><path d="M65.001 594 L264 594 L264 615 L65.001 615 Z"/></clipPath><g clip-path="url(#clp70)"><g class="ps00"><text transform="matrix(1 0 0 1 70 609)"><tspan x="0,7.48" class="ps02 ps21" xml:space="preserve">Northern Virginia Community College</tspan></text></g></g></g><g class="ps00"><clipPath id="clp71"><path d="M252 594 L274 594 L274 615 L252 615 Z"/></clipPath><g clip-path="url(#clp71)"><g class="ps00"><text transform="matrix(1 0 0 1 257.487 609)"><tspan xml:space="preserve" x="0,3.51,8.05" class="ps02 ps21"> -</tspan></text></g></g></g><g class="ps00"><clipPath id="clp72"><path d="M264 594 L328 594 L328 615 L264 615 Z"/></clipPath><g clip-path="url(#clp72)"><g class="ps00"><text transform="matrix(1 0 0 1 269.049 609)"><tspan class="ps02 ps21" xml:space="preserve">Annandale</tspan></text></g></g></g><g class="ps00"><clipPath id="clp73"><path d="M316 594 L333 594 L333 615 L316 615 Z"/></clipPath><g clip-path="url(#clp73)"><g class="ps00"><text transform="matrix(1 0 0 1 321.799 609)"><tspan class="ps02 ps21" xml:space="preserve">, </tspan></text></g></g></g><g class="ps00"><clipPath id="clp74"><path d="M323 594 L349 594 L349 615 L323 615 Z"/></clipPath><g clip-path="url(#clp74)"><g class="ps00"><text transform="matrix(1 0 0 1 328.950 609)"><tspan class="ps02 ps21" xml:space="preserve">VA</tspan></text></g></g></g><g class="ps00"><clipPath id="clp75"><path d="M65.001 605 L156 605 L156 626 L65.001 626 Z"/></clipPath><g clip-path="url(#clp75)"><g class="ps00"><text transform="matrix(1 0 0 1 70 620)"><tspan class="ps02 ps23" xml:space="preserve">Master of Arts</tspan></text></g></g></g><g class="ps00"><clipPath id="clp76"><path d="M144 605 L162 605 L162 626 L144 626 Z"/></clipPath><g clip-path="url(#clp76)"><g class="ps00"><text transform="matrix(1 0 0 1 149.387 620)"><tspan xml:space="preserve" x="0,4.54" class="ps02 ps21">:</tspan></text></g></g></g><g class="ps00"><clipPath id="clp77"><path d="M152 605 L245 605 L245 626 L152 626 Z"/></clipPath><g clip-path="url(#clp77)"><g class="ps00"><text transform="matrix(1 0 0 1 157.437 620)"><tspan class="ps02 ps21" xml:space="preserve">Creative Writing</tspan></text></g></g></g><g class="ps00"><clipPath id="clp78"><path d="M48.999 621 L50 621 L50 673 L48.999 673 Z"/></clipPath><g clip-path="url(#clp78)"><g class="ps00"><path d="M48.999 621 L50 621 L50 673 L48.999 673 Z" class="ps03"/></g></g></g><g class="ps00"><clipPath id="clp79"><path d="M65.001 637 L217 637 L217 661 L65.001 661 Z"/></clipPath><g clip-path="url(#clp79)"><g class="ps00"><text transform="matrix(1 0 0 1 70 655)"><tspan class="ps04 ps22" xml:space="preserve">CERTIFICATIONS</tspan></text></g></g></g><g class="ps00"><clipPath id="clp80"><path d="M65.001 657 L261 657 L261 678 L65.001 678 Z"/></clipPath><g clip-path="url(#clp80)"><g class="ps00"><text transform="matrix(1 0 0 1 70 672)"><tspan class="ps02 ps21" xml:space="preserve">Google Analytics Certification - 2021</tspan></text></g></g></g></g></g><g><clipPath id="clp81"><path d="M47.001 77.999 L52.003 77.999 L52.003 106 L47.001 106 Z"/></clipPath><g clip-path="url(#clp81)"><g class="ps00"><path d="M47.001 77.999 L52.003 77.999 L52.003 106 L47.001 106 Z" class="ps01"/></g></g></g><g><clipPath id="clp82"><path d="M44.998 101 L54.997 101 L54.997 111 L44.998 111 Z"/></clipPath><g clip-path="url(#clp82)"><g class="ps00"><clipPath id="clp83"><path d="M50 101 L50 101 C52.758 101 55.002 103.24 55.002 106 C55.002 108.76 52.758 111 50 111 C47.242 111 44.998 108.76 44.998 106 C44.998 103.24 47.242 101 50 101 Z"/></clipPath><g clip-path="url(#clp83)"><g class="ps00"><path d="M44.998 101 L54.997 101 L54.997 111 L44.998 111 Z" class="ps01"/></g></g></g></g></g><g><clipPath id="clp84"><path d="M0 0 L616.11 0 L616.11 727.53 L0 727.53 Z"/></clipPath><g clip-path="url(#clp84)"><g class="ps00"><path d="M50 101 L50 101 C52.758 101 55.002 103.24 55.002 106 C55.002 108.76 52.758 111 50 111 C47.242 111 44.998 108.76 44.998 106 C44.998 103.24 47.242 101 50 101 ZM50 102 L50 102 C47.793 102 45.999 103.79 45.999 106 C45.999 108.21 47.793 110 50 110 C52.207 110 54.001 108.21 54.001 106 C54.001 103.79 52.207 102 50 102 Z" class="ps03"/></g></g></g><g><clipPath id="clp85"><path d="M44.998 186 L54.997 186 L54.997 196 L44.998 196 Z"/></clipPath><g clip-path="url(#clp85)"><g class="ps00"><clipPath id="clp86"><path d="M50 186 L50 186 C52.758 186 55.002 188.24 55.002 191 C55.002 193.76 52.758 196 50 196 C47.242 196 44.998 193.76 44.998 191 C44.998 188.24 47.242 186 50 186 Z"/></clipPath><g clip-path="url(#clp86)"><g class="ps00"><path d="M44.998 186 L54.997 186 L54.997 196 L44.998 196 Z" class="ps01"/></g></g></g></g></g><g><clipPath id="clp87"><path d="M0 0 L616.11 0 L616.11 727.53 L0 727.53 Z"/></clipPath><g clip-path="url(#clp87)"><g class="ps00"><path d="M50 186 L50 186 C52.758 186 55.002 188.24 55.002 191 C55.002 193.76 52.758 196 50 196 C47.242 196 44.998 193.76 44.998 191 C44.998 188.24 47.242 186 50 186 ZM50 187 L50 187 C47.793 187 45.999 188.79 45.999 191 C45.999 193.21 47.793 195 50 195 C52.207 195 54.001 193.21 54.001 191 C54.001 188.79 52.207 187 50 187 Z" class="ps03"/></g></g></g><g><clipPath id="clp88"><path d="M44.998 276 L54.997 276 L54.997 286 L44.998 286 Z"/></clipPath><g clip-path="url(#clp88)"><g class="ps00"><clipPath id="clp89"><path d="M50 276 L50 276 C52.758 276 55.002 278.24 55.002 281 C55.002 283.76 52.758 286 50 286 C47.242 286 44.998 283.76 44.998 281 C44.998 278.24 47.242 276 50 276 Z"/></clipPath><g clip-path="url(#clp89)"><g class="ps00"><path d="M44.998 276 L54.997 276 L54.997 286 L44.998 286 Z" class="ps01"/></g></g></g></g></g><g><clipPath id="clp90"><path d="M0 0 L616.11 0 L616.11 727.53 L0 727.53 Z"/></clipPath><g clip-path="url(#clp90)"><g class="ps00"><path d="M50 276 L50 276 C52.758 276 55.002 278.24 55.002 281 C55.002 283.76 52.758 286 50 286 C47.242 286 44.998 283.76 44.998 281 C44.998 278.24 47.242 276 50 276 ZM50 277 L50 277 C47.793 277 45.999 278.79 45.999 281 C45.999 283.21 47.793 285 50 285 C52.207 285 54.001 283.21 54.001 281 C54.001 278.79 52.207 277 50 277 Z" class="ps03"/></g></g></g><g><clipPath id="clp91"><path d="M44.998 508 L54.997 508 L54.997 518 L44.998 518 Z"/></clipPath><g clip-path="url(#clp91)"><g class="ps00"><clipPath id="clp92"><path d="M50 508 L50 508 C52.758 508 55.002 510.24 55.002 513 C55.002 515.76 52.758 518 50 518 C47.242 518 44.998 515.76 44.998 513 C44.998 510.24 47.242 508 50 508 Z"/></clipPath><g clip-path="url(#clp92)"><g class="ps00"><path d="M44.998 508 L54.997 508 L54.997 518 L44.998 518 Z" class="ps01"/></g></g></g></g></g><g><clipPath id="clp93"><path d="M0 0 L616.11 0 L616.11 727.53 L0 727.53 Z"/></clipPath><g clip-path="url(#clp93)"><g class="ps00"><path d="M50 508 L50 508 C52.758 508 55.002 510.24 55.002 513 C55.002 515.76 52.758 518 50 518 C47.242 518 44.998 515.76 44.998 513 C44.998 510.24 47.242 508 50 508 ZM50 509 L50 509 C47.793 509 45.999 510.79 45.999 513 C45.999 515.21 47.793 517 50 517 C52.207 517 54.001 515.21 54.001 513 C54.001 510.79 52.207 509 50 509 Z" class="ps03"/></g></g></g><g><clipPath id="clp94"><path d="M44.998 581 L54.997 581 L54.997 591 L44.998 591 Z"/></clipPath><g clip-path="url(#clp94)"><g class="ps00"><clipPath id="clp95"><path d="M50 581 L50 581 C52.758 581 55.002 583.24 55.002 586 C55.002 588.76 52.758 591 50 591 C47.242 591 44.998 588.76 44.998 586 C44.998 583.24 47.242 581 50 581 Z"/></clipPath><g clip-path="url(#clp95)"><g class="ps00"><path d="M44.998 581 L54.997 581 L54.997 591 L44.998 591 Z" class="ps01"/></g></g></g></g></g><g><clipPath id="clp96"><path d="M0 0 L616.11 0 L616.11 727.53 L0 727.53 Z"/></clipPath><g clip-path="url(#clp96)"><g class="ps00"><path d="M50 581 L50 581 C52.758 581 55.002 583.24 55.002 586 C55.002 588.76 52.758 591 50 591 C47.242 591 44.998 588.76 44.998 586 C44.998 583.24 47.242 581 50 581 ZM50 582 L50 582 C47.793 582 45.999 583.79 45.999 586 C45.999 588.21 47.793 590 50 590 C52.207 590 54.001 588.21 54.001 586 C54.001 583.79 52.207 582 50 582 Z" class="ps03"/></g></g></g><g><clipPath id="clp97"><path d="M44.998 644 L54.997 644 L54.997 654 L44.998 654 Z"/></clipPath><g clip-path="url(#clp97)"><g class="ps00"><clipPath id="clp98"><path d="M50 644 L50 644 C52.758 644 55.002 646.24 55.002 649 C55.002 651.76 52.758 654 50 654 C47.242 654 44.998 651.76 44.998 649 C44.998 646.24 47.242 644 50 644 Z"/></clipPath><g clip-path="url(#clp98)"><g class="ps00"><path d="M44.998 644 L54.997 644 L54.997 654 L44.998 654 Z" class="ps01"/></g></g></g></g></g><g><clipPath id="clp99"><path d="M0 0 L616.11 0 L616.11 727.53 L0 727.53 Z"/></clipPath><g clip-path="url(#clp99)"><g class="ps00"><path d="M50 644 L50 644 C52.758 644 55.002 646.24 55.002 649 C55.002 651.76 52.758 654 50 654 C47.242 654 44.998 651.76 44.998 649 C44.998 646.24 47.242 644 50 644 ZM50 645 L50 645 C47.793 645 45.999 646.79 45.999 649 C45.999 651.21 47.793 653 50 653 C52.207 653 54.001 651.21 54.001 649 C54.001 646.79 52.207 645 50 645 Z" class="ps03"/></g></g></g></g></g></g></g></g></g></svg>